<svg width="56" height="61" viewBox="0 0 56 61" fill="none" xmlns="http://www.w3.org/2000/svg">
<g id="logo-oficial">
<g id="Group">
<g id="Group_2">
<path id="Vector" d="M7.22985 39.8382C7.39535 39.281 7.59043 38.721 7.81365 38.1605C8.08648 37.4765 7.62239 36.7265 6.88452 36.6843L4.06229 36.5228L2.236 36.4183C1.79432 36.3931 1.37458 36.6391 1.19238 37.0405C0.75071 38.0138 0.37009 38.988 0.0533837 39.957C-0.192731 40.7093 0.448319 41.4565 1.23436 41.3439L2.33901 41.1858L6.3484 40.611C6.77099 40.5507 7.1087 40.2453 7.22985 39.8382Z" fill="#FF7C04"/>
<path id="Vector_2" d="M12.2766 31.0018C12.8447 30.3463 13.4514 29.7041 14.0958 29.079C14.5484 28.6401 14.5408 27.9153 14.0615 27.5054L12.2151 25.9275L11.327 25.1684C10.912 24.8141 10.2896 24.8217 9.8918 25.195C8.9021 26.1246 7.97439 27.0836 7.10917 28.064C6.62505 28.6126 6.81201 29.4704 7.48502 29.7606L8.231 30.0822L11.036 31.292C11.4696 31.4791 11.9676 31.358 12.2766 31.0018Z" fill="#FF7C04"/>
<path id="Vector_3" d="M23.7478 22.6278C24.1818 22.4416 24.4475 22.0051 24.3988 21.5367L24.0845 18.5087L24.001 17.7036C23.9257 16.9773 23.1601 16.5417 22.4895 16.8362C21.2899 17.363 20.0923 17.9553 18.9046 18.6156C18.4272 18.8811 18.2326 19.4696 18.4472 19.9702L18.907 21.0423L19.8624 23.2705C20.1104 23.849 20.8025 24.0746 21.3591 23.7768C22.1513 23.3531 22.9488 22.9703 23.7478 22.6278Z" fill="#FF7C04"/>
</g>
<path id="Vector_4" d="M47.8689 15.132L45.6448 0.906055C45.5289 0.163646 44.7009 -0.231076 44.0475 0.143691L31.2929 7.45996C30.5383 7.89267 30.5875 8.99324 31.3778 9.35756L32.1801 9.72757C32.6093 9.92564 32.8654 10.3797 32.7953 10.8457C30.4343 26.5299 15.9198 41.9747 11.8631 40.3834C7.7183 38.7576 22.1165 27.2808 23.7081 26.0273C23.805 25.9509 23.8837 25.862 23.949 25.758L26.8771 21.0851C27.4075 20.2382 26.5819 19.1737 25.6346 19.5C11.8693 24.239 -5.79276 51.1429 13.9685 45.1025C31.9368 39.6102 41.987 22.4074 44.9528 16.7441C45.2184 16.2368 45.8352 16.0269 46.357 16.2677C47.1344 16.6263 48.0011 15.9761 47.8689 15.132Z" fill="#FF7C04"/>
</g>
<path id="Vector_5" d="M34.0326 49.8965C43.7709 43.3535 48.9087 39.0087 52.8695 30.5895C53.0364 30.2343 53.4733 30.0989 53.8091 30.305L54.1482 30.5126C54.6052 30.7924 55.1885 30.4409 55.1518 29.9079L54.4945 20.4409C54.464 20.0001 54.0137 19.7146 53.5997 19.8733L44.4977 23.3612C43.9883 23.5564 43.924 24.2484 44.389 24.5334C44.6632 24.7016 44.7796 25.0436 44.6594 25.3414C43.8457 27.3596 43.8825 27.0722 42.7544 28.9613C41.0445 31.8264 38.9754 34.4973 36.6531 36.9511C34.3307 39.3811 31.673 41.5989 28.9744 43.5368C23.5746 47.4441 17.6445 50.741 11.3189 53.2627C11.224 53.3007 11.1282 53.3378 11.0328 53.3748C10.551 53.5606 10.4623 54.1951 10.8696 54.511C15.3278 57.9704 20.9308 60.0351 27.0207 60.0351C39.4352 60.0351 49.8355 51.4706 52.6029 39.9521C52.7631 39.2847 51.9084 38.843 51.4605 39.3645C44.9905 46.8993 38.4651 49.8903 34.5945 51.0683C33.8714 51.2882 33.4059 50.3173 34.0326 49.8965Z" fill="#374151"/>
</g>
</svg>
