<svg width="199" height="143" viewBox="0 0 199 143" fill="none" xmlns="http://www.w3.org/2000/svg">
<g id="placeholder-image">
<g id="Rectangle 1">
<path fill-rule="evenodd" clip-rule="evenodd" d="M190 0H9C4.02944 0 0 4.02944 0 9V121.5L51.6672 70.7236C55.1785 67.2729 60.8108 67.2838 64.3087 70.7481L103.793 109.853C107.251 113.277 112.804 113.333 116.329 109.979L144.673 83.0182C148.198 79.6654 153.749 79.7203 157.207 83.142L199 124.5V9C199 4.02944 194.971 0 190 0Z" fill="#D9D9D9"/>
<path d="M64.3087 70.7481C60.8108 67.2838 55.1785 67.2729 51.6672 70.7236L0 121.5V134C0 138.971 4.02944 143 9 143H190C194.971 143 199 138.971 199 134V124.5L157.207 83.142C153.749 79.7203 148.198 79.6654 144.673 83.0182L116.329 109.979C112.804 113.333 107.251 113.277 103.793 109.853L64.3087 70.7481Z" fill="#9D9D9D"/>
<path d="M196.5 9V118.509L158.965 81.365C154.547 76.9928 147.454 76.9227 142.95 81.2068L114.606 108.168C112.06 110.59 108.05 110.55 105.553 108.077L66.0679 68.9718C61.5983 64.5452 54.4015 64.5313 49.9149 68.9406L2.5 115.538V9C2.5 5.41015 5.41015 2.5 9 2.5H190C193.59 2.5 196.5 5.41015 196.5 9ZM2.5 134V122.548L53.4195 72.5067C55.9554 70.0145 60.0232 70.0224 62.5495 72.5243L102.034 111.629C106.452 116.005 113.547 116.076 118.052 111.791L146.396 84.8296C148.942 82.4081 152.951 82.4477 155.448 84.919L196.5 125.543V134C196.5 137.59 193.59 140.5 190 140.5H9C5.41015 140.5 2.5 137.59 2.5 134Z" stroke="#9D9D9D" stroke-width="5"/>
</g>
<circle id="Ellipse 1" cx="126" cy="41" r="14" fill="#9D9D9D"/>
</g>
</svg>
